<?xml version="1.0" encoding="UTF-8" standalone="no"?>
<!DOCTYPE svg PUBLIC "-//W3C//DTD SVG 1.1//EN"
 "http://www.w3.org/Graphics/SVG/1.1/DTD/svg11.dtd">
<!-- Generated by graphviz version 2.47.0 (20210316.0004)
 -->
<!-- Title: dependencies Pages: 1 -->
<svg width="870pt" height="366pt"
 viewBox="0.00 0.00 870.00 366.00" xmlns="http://www.w3.org/2000/svg" xmlns:xlink="http://www.w3.org/1999/xlink">
<g id="graph0" class="graph" transform="scale(1 1) rotate(0) translate(4 362)">
<title>dependencies</title>
<polygon fill="white" stroke="transparent" points="-4,4 -4,-362 866,-362 866,4 -4,4"/>
<text text-anchor="start" x="410.01" y="-42.4" font-family="Times-12" font-weight="bold" font-size="14.00">Legend</text>
<polygon fill="#ffffb3" stroke="transparent" points="197,-10 197,-30 217,-30 217,-10 197,-10"/>
<text text-anchor="start" x="220.63" y="-15.4" font-family="Times-12" font-size="14.00"> &#160;Declarations</text>
<polygon fill="#8dd3c7" stroke="transparent" points="310,-10 310,-30 330,-30 330,-10 310,-10"/>
<text text-anchor="start" x="333.73" y="-15.4" font-family="Times-12" font-size="14.00"> &#160;Module</text>
<polygon fill="#80b1d3" stroke="transparent" points="396,-10 396,-30 416,-30 416,-10 396,-10"/>
<text text-anchor="start" x="419.78" y="-15.4" font-family="Times-12" font-size="14.00"> &#160;Bootstrap</text>
<polygon fill="#fdb462" stroke="transparent" points="493,-10 493,-30 513,-30 513,-10 493,-10"/>
<text text-anchor="start" x="516.67" y="-15.4" font-family="Times-12" font-size="14.00"> &#160;Providers</text>
<polygon fill="#fb8072" stroke="transparent" points="589,-10 589,-30 609,-30 609,-10 589,-10"/>
<text text-anchor="start" x="612.73" y="-15.4" font-family="Times-12" font-size="14.00"> &#160;Exports</text>
<g id="clust19" class="cluster">
<title>cluster_UsersModule</title>
<polygon fill="none" stroke="black" stroke-dasharray="1,5" points="168,-70 168,-274 316,-274 316,-70 168,-70"/>
</g>
<g id="clust24" class="cluster">
<title>cluster_UsersModule_providers</title>
<polygon fill="none" stroke="black" points="176,-78 176,-130 308,-130 308,-78 176,-78"/>
</g>
<g id="clust22" class="cluster">
<title>cluster_UsersModule_exports</title>
<polygon fill="none" stroke="black" points="204,-214 204,-266 308,-266 308,-214 204,-214"/>
</g>
<g id="clust13" class="cluster">
<title>cluster_PostsModule</title>
<polygon fill="none" stroke="black" stroke-dasharray="1,5" points="8,-138 8,-266 160,-266 160,-138 8,-138"/>
</g>
<g id="clust18" class="cluster">
<title>cluster_PostsModule_providers</title>
<polygon fill="none" stroke="black" points="16,-146 16,-198 152,-198 152,-146 16,-146"/>
</g>
<g id="clust1" class="cluster">
<title>cluster_AppModule</title>
<polygon fill="none" stroke="black" stroke-dasharray="1,5" points="324,-206 324,-342 582,-342 582,-206 324,-206"/>
</g>
<g id="clust3" class="cluster">
<title>cluster_AppModule_imports</title>
<polygon fill="none" stroke="black" points="470,-214 470,-266 574,-266 574,-214 470,-214"/>
</g>
<g id="clust6" class="cluster">
<title>cluster_AppModule_providers</title>
<polygon fill="none" stroke="black" points="332,-214 332,-266 462,-266 462,-214 332,-214"/>
</g>
<g id="clust7" class="cluster">
<title>cluster_AuthModule</title>
<polygon fill="none" stroke="black" stroke-dasharray="1,5" points="590,-282 590,-350 854,-350 854,-282 590,-282"/>
</g>
<g id="clust10" class="cluster">
<title>cluster_AuthModule_exports</title>
<polygon fill="none" stroke="black" points="740,-290 740,-342 846,-342 846,-290 740,-290"/>
</g>
<g id="clust12" class="cluster">
<title>cluster_AuthModule_providers</title>
<polygon fill="none" stroke="black" points="598,-290 598,-342 732,-342 732,-290 598,-290"/>
</g>
<!-- AuthModule -->
<g id="node1" class="node">
<title>AuthModule</title>
<polygon fill="#8dd3c7" stroke="black" points="565.55,-258 562.55,-262 541.55,-262 538.55,-258 478.45,-258 478.45,-222 565.55,-222 565.55,-258"/>
<text text-anchor="middle" x="522" y="-235.8" font-family="Times,serif" font-size="14.00">AuthModule</text>
</g>
<!-- AppModule -->
<g id="node4" class="node">
<title>AppModule</title>
<polygon fill="#8dd3c7" stroke="black" points="426.66,-334 423.66,-338 402.66,-338 399.66,-334 343.34,-334 343.34,-298 426.66,-298 426.66,-334"/>
<text text-anchor="middle" x="385" y="-311.8" font-family="Times,serif" font-size="14.00">AppModule</text>
</g>
<!-- AuthModule&#45;&gt;AppModule -->
<g id="edge1" class="edge">
<title>AuthModule&#45;&gt;AppModule</title>
<path fill="none" stroke="black" d="M507.41,-258.2C507.41,-282.36 507.41,-322 507.41,-322 507.41,-322 436.78,-322 436.78,-322"/>
<polygon fill="black" stroke="black" points="436.78,-318.5 426.78,-322 436.78,-325.5 436.78,-318.5"/>
</g>
<!-- AuthService  -->
<g id="node6" class="node">
<title>AuthService </title>
<polygon fill="#fb8072" stroke="black" points="837.98,-334 748.02,-334 748.02,-298 837.98,-298 837.98,-334"/>
<text text-anchor="middle" x="793" y="-311.8" font-family="Times,serif" font-size="14.00">AuthService </text>
</g>
<!-- AuthModule&#45;&gt;AuthService  -->
<g id="edge5" class="edge">
<title>AuthModule&#45;&gt;AuthService </title>
<path fill="none" stroke="black" stroke-dasharray="5,2" d="M565.84,-240C642.54,-240 793,-240 793,-240 793,-240 793,-287.99 793,-287.99"/>
<polygon fill="black" stroke="black" points="789.5,-287.99 793,-297.99 796.5,-287.99 789.5,-287.99"/>
</g>
<!-- PostsModule -->
<g id="node2" class="node">
<title>PostsModule</title>
<polygon fill="#8dd3c7" stroke="black" points="151.61,-258 148.61,-262 127.61,-262 124.61,-258 62.39,-258 62.39,-222 151.61,-222 151.61,-258"/>
<text text-anchor="middle" x="107" y="-235.8" font-family="Times,serif" font-size="14.00">PostsModule</text>
</g>
<!-- PostsModule&#45;&gt;AppModule -->
<g id="edge2" class="edge">
<title>PostsModule&#45;&gt;AppModule</title>
<path fill="none" stroke="black" d="M107,-258.2C107,-282.36 107,-322 107,-322 107,-322 333.08,-322 333.08,-322"/>
<polygon fill="black" stroke="black" points="333.08,-325.5 343.08,-322 333.08,-318.5 333.08,-325.5"/>
</g>
<!-- UsersModule -->
<g id="node3" class="node">
<title>UsersModule</title>
<polygon fill="#8dd3c7" stroke="black" points="277.92,-190 274.92,-194 253.92,-194 250.92,-190 186.08,-190 186.08,-154 277.92,-154 277.92,-190"/>
<text text-anchor="middle" x="232" y="-167.8" font-family="Times,serif" font-size="14.00">UsersModule</text>
</g>
<!-- UsersModule&#45;&gt;PostsModule -->
<g id="edge7" class="edge">
<title>UsersModule&#45;&gt;PostsModule</title>
<path fill="none" stroke="black" d="M186.05,-172C166.43,-172 147.97,-172 147.97,-172 147.97,-172 147.97,-211.78 147.97,-211.78"/>
<polygon fill="black" stroke="black" points="144.47,-211.78 147.97,-221.78 151.47,-211.78 144.47,-211.78"/>
</g>
<!-- UsersModule&#45;&gt;AppModule -->
<g id="edge3" class="edge">
<title>UsersModule&#45;&gt;AppModule</title>
<path fill="none" stroke="black" d="M199.17,-190.04C199.17,-227.45 199.17,-310 199.17,-310 199.17,-310 333.3,-310 333.3,-310"/>
<polygon fill="black" stroke="black" points="333.3,-313.5 343.3,-310 333.3,-306.5 333.3,-313.5"/>
</g>
<!-- UserService  -->
<g id="node9" class="node">
<title>UserService </title>
<polygon fill="#fb8072" stroke="black" points="299.9,-258 212.1,-258 212.1,-222 299.9,-222 299.9,-258"/>
<text text-anchor="middle" x="256" y="-235.8" font-family="Times,serif" font-size="14.00">UserService </text>
</g>
<!-- UsersModule&#45;&gt;UserService  -->
<g id="edge9" class="edge">
<title>UsersModule&#45;&gt;UserService </title>
<path fill="none" stroke="black" stroke-dasharray="5,2" d="M244.88,-190.22C244.88,-190.22 244.88,-211.73 244.88,-211.73"/>
<polygon fill="black" stroke="black" points="241.38,-211.73 244.88,-221.73 248.38,-211.73 241.38,-211.73"/>
</g>
<!-- AppService -->
<g id="node5" class="node">
<title>AppService</title>
<ellipse fill="#fdb462" stroke="black" cx="397" cy="-240" rx="56.74" ry="18"/>
<text text-anchor="middle" x="397" y="-235.8" font-family="Times,serif" font-size="14.00">AppService</text>
</g>
<!-- AppService&#45;&gt;AppModule -->
<g id="edge4" class="edge">
<title>AppService&#45;&gt;AppModule</title>
<path fill="none" stroke="black" d="M385,-257.63C385,-257.63 385,-287.94 385,-287.94"/>
<polygon fill="black" stroke="black" points="381.5,-287.94 385,-297.94 388.5,-287.94 381.5,-287.94"/>
</g>
<!-- AuthService -->
<g id="node7" class="node">
<title>AuthService</title>
<ellipse fill="#fdb462" stroke="black" cx="665" cy="-316" rx="59.11" ry="18"/>
<text text-anchor="middle" x="665" y="-311.8" font-family="Times,serif" font-size="14.00">AuthService</text>
</g>
<!-- AuthService&#45;&gt;AuthModule -->
<g id="edge6" class="edge">
<title>AuthService&#45;&gt;AuthModule</title>
<path fill="none" stroke="black" d="M609.05,-310C574.45,-310 536.59,-310 536.59,-310 536.59,-310 536.59,-268.03 536.59,-268.03"/>
<polygon fill="black" stroke="black" points="540.09,-268.03 536.59,-258.03 533.09,-268.03 540.09,-268.03"/>
</g>
<!-- PostsService -->
<g id="node8" class="node">
<title>PostsService</title>
<ellipse fill="#fdb462" stroke="black" cx="84" cy="-172" rx="60.27" ry="18"/>
<text text-anchor="middle" x="84" y="-167.8" font-family="Times,serif" font-size="14.00">PostsService</text>
</g>
<!-- PostsService&#45;&gt;PostsModule -->
<g id="edge8" class="edge">
<title>PostsService&#45;&gt;PostsModule</title>
<path fill="none" stroke="black" d="M103.41,-189.16C103.41,-189.16 103.41,-211.65 103.41,-211.65"/>
<polygon fill="black" stroke="black" points="99.91,-211.65 103.41,-221.65 106.91,-211.65 99.91,-211.65"/>
</g>
<!-- UserService -->
<g id="node10" class="node">
<title>UserService</title>
<ellipse fill="#fdb462" stroke="black" cx="242" cy="-104" rx="58.44" ry="18"/>
<text text-anchor="middle" x="242" y="-99.8" font-family="Times,serif" font-size="14.00">UserService</text>
</g>
<!-- UserService&#45;&gt;UsersModule -->
<g id="edge10" class="edge">
<title>UserService&#45;&gt;UsersModule</title>
<path fill="none" stroke="black" d="M232,-121.87C232,-121.87 232,-143.54 232,-143.54"/>
<polygon fill="black" stroke="black" points="228.5,-143.54 232,-153.54 235.5,-143.54 228.5,-143.54"/>
</g>
</g>
</svg>
