<?xml version="1.0" encoding="UTF-8" standalone="no"?>
<!DOCTYPE svg PUBLIC "-//W3C//DTD SVG 1.1//EN"
 "http://www.w3.org/Graphics/SVG/1.1/DTD/svg11.dtd">
<!-- Generated by graphviz version 2.47.0 (20210316.0004)
 -->
<!-- Title: dependencies Pages: 1 -->
<svg width="951pt" height="287pt"
 viewBox="0.00 0.00 951.00 287.00" xmlns="http://www.w3.org/2000/svg" xmlns:xlink="http://www.w3.org/1999/xlink">
<g id="graph0" class="graph" transform="scale(1 1) rotate(0) translate(4 283)">
<title>dependencies</title>
<polygon fill="white" stroke="transparent" points="-4,4 -4,-283 947,-283 947,4 -4,4"/>
<text text-anchor="start" x="450.51" y="-42.4" font-family="Times-12" font-weight="bold" font-size="14.00">Legend</text>
<polygon fill="#ffffb3" stroke="transparent" points="237.5,-10 237.5,-30 257.5,-30 257.5,-10 237.5,-10"/>
<text text-anchor="start" x="261.13" y="-15.4" font-family="Times-12" font-size="14.00"> &#160;Declarations</text>
<polygon fill="#8dd3c7" stroke="transparent" points="350.5,-10 350.5,-30 370.5,-30 370.5,-10 350.5,-10"/>
<text text-anchor="start" x="374.23" y="-15.4" font-family="Times-12" font-size="14.00"> &#160;Module</text>
<polygon fill="#80b1d3" stroke="transparent" points="436.5,-10 436.5,-30 456.5,-30 456.5,-10 436.5,-10"/>
<text text-anchor="start" x="460.28" y="-15.4" font-family="Times-12" font-size="14.00"> &#160;Bootstrap</text>
<polygon fill="#fdb462" stroke="transparent" points="533.5,-10 533.5,-30 553.5,-30 553.5,-10 533.5,-10"/>
<text text-anchor="start" x="557.17" y="-15.4" font-family="Times-12" font-size="14.00"> &#160;Providers</text>
<polygon fill="#fb8072" stroke="transparent" points="629.5,-10 629.5,-30 649.5,-30 649.5,-10 629.5,-10"/>
<text text-anchor="start" x="653.23" y="-15.4" font-family="Times-12" font-size="14.00"> &#160;Exports</text>
<g id="clust1" class="cluster">
<title>cluster_AppModule</title>
<polygon fill="none" stroke="black" stroke-dasharray="1,5" points="168,-70 168,-271 535,-271 535,-70 168,-70"/>
</g>
<g id="clust6" class="cluster">
<title>cluster_AppModule_providers</title>
<polygon fill="none" stroke="black" points="397,-154 397,-206 527,-206 527,-154 397,-154"/>
</g>
<g id="clust3" class="cluster">
<title>cluster_AppModule_imports</title>
<polygon fill="none" stroke="black" points="176,-78 176,-206 389,-206 389,-78 176,-78"/>
</g>
<g id="clust7" class="cluster">
<title>cluster_AuthModule</title>
<polygon fill="none" stroke="black" stroke-dasharray="1,5" points="543,-146 543,-214 807,-214 807,-146 543,-146"/>
</g>
<g id="clust12" class="cluster">
<title>cluster_AuthModule_providers</title>
<polygon fill="none" stroke="black" points="665,-154 665,-206 799,-206 799,-154 665,-154"/>
</g>
<g id="clust10" class="cluster">
<title>cluster_AuthModule_exports</title>
<polygon fill="none" stroke="black" points="551,-154 551,-206 657,-206 657,-154 551,-154"/>
</g>
<g id="clust19" class="cluster">
<title>cluster_UsersModule</title>
<polygon fill="none" stroke="black" stroke-dasharray="1,5" points="815,-146 815,-214 935,-214 935,-146 815,-146"/>
</g>
<g id="clust22" class="cluster">
<title>cluster_UsersModule_exports</title>
<polygon fill="none" stroke="black" points="823,-154 823,-206 927,-206 927,-154 823,-154"/>
</g>
<g id="clust13" class="cluster">
<title>cluster_PostsModule</title>
<polygon fill="none" stroke="black" stroke-dasharray="1,5" points="8,-70 8,-138 160,-138 160,-70 8,-70"/>
</g>
<g id="clust18" class="cluster">
<title>cluster_PostsModule_providers</title>
<polygon fill="none" stroke="black" points="16,-78 16,-130 152,-130 152,-78 16,-78"/>
</g>
<!-- AuthModule -->
<g id="node1" class="node">
<title>AuthModule</title>
<polygon fill="#8dd3c7" stroke="black" points="380.55,-122 377.55,-126 356.55,-126 353.55,-122 293.45,-122 293.45,-86 380.55,-86 380.55,-122"/>
<text text-anchor="middle" x="337" y="-99.8" font-family="Times,serif" font-size="14.00">AuthModule</text>
</g>
<!-- AppModule -->
<g id="node4" class="node">
<title>AppModule</title>
<polygon fill="#8dd3c7" stroke="black" points="359.66,-263 356.66,-267 335.66,-267 332.66,-263 276.34,-263 276.34,-227 359.66,-227 359.66,-263"/>
<text text-anchor="middle" x="318" y="-240.8" font-family="Times,serif" font-size="14.00">AppModule</text>
</g>
<!-- AuthModule&#45;&gt;AppModule -->
<g id="edge1" class="edge">
<title>AuthModule&#45;&gt;AppModule</title>
<path fill="none" stroke="black" d="M315.43,-122.14C315.43,-122.14 315.43,-216.93 315.43,-216.93"/>
<polygon fill="black" stroke="black" points="311.93,-216.92 315.43,-226.93 318.93,-216.93 311.93,-216.92"/>
</g>
<!-- AuthService  -->
<g id="node6" class="node">
<title>AuthService </title>
<polygon fill="#fb8072" stroke="black" points="648.98,-198 559.02,-198 559.02,-162 648.98,-162 648.98,-198"/>
<text text-anchor="middle" x="604" y="-175.8" font-family="Times,serif" font-size="14.00">AuthService </text>
</g>
<!-- AuthModule&#45;&gt;AuthService  -->
<g id="edge5" class="edge">
<title>AuthModule&#45;&gt;AuthService </title>
<path fill="none" stroke="black" stroke-dasharray="5,2" d="M380.79,-110C456.54,-110 604,-110 604,-110 604,-110 604,-151.97 604,-151.97"/>
<polygon fill="black" stroke="black" points="600.5,-151.97 604,-161.97 607.5,-151.97 600.5,-151.97"/>
</g>
<!-- PostsModule -->
<g id="node2" class="node">
<title>PostsModule</title>
<polygon fill="#8dd3c7" stroke="black" points="274.61,-198 271.61,-202 250.61,-202 247.61,-198 185.39,-198 185.39,-162 274.61,-162 274.61,-198"/>
<text text-anchor="middle" x="230" y="-175.8" font-family="Times,serif" font-size="14.00">PostsModule</text>
</g>
<!-- PostsModule&#45;&gt;AppModule -->
<g id="edge2" class="edge">
<title>PostsModule&#45;&gt;AppModule</title>
<path fill="none" stroke="black" d="M274.65,-186C279.01,-186 281.86,-186 281.86,-186 281.86,-186 281.86,-216.98 281.86,-216.98"/>
<polygon fill="black" stroke="black" points="278.36,-216.98 281.86,-226.98 285.36,-216.98 278.36,-216.98"/>
</g>
<!-- UsersModule -->
<g id="node3" class="node">
<title>UsersModule</title>
<polygon fill="#8dd3c7" stroke="black" points="275.92,-122 272.92,-126 251.92,-126 248.92,-122 184.08,-122 184.08,-86 275.92,-86 275.92,-122"/>
<text text-anchor="middle" x="230" y="-99.8" font-family="Times,serif" font-size="14.00">UsersModule</text>
</g>
<!-- UsersModule&#45;&gt;PostsModule -->
<g id="edge7" class="edge">
<title>UsersModule&#45;&gt;PostsModule</title>
<path fill="none" stroke="black" d="M215.15,-122.01C215.15,-122.01 215.15,-151.85 215.15,-151.85"/>
<polygon fill="black" stroke="black" points="211.65,-151.85 215.15,-161.85 218.65,-151.85 211.65,-151.85"/>
</g>
<!-- UsersModule&#45;&gt;AppModule -->
<g id="edge3" class="edge">
<title>UsersModule&#45;&gt;AppModule</title>
<path fill="none" stroke="black" d="M275.9,-104C282.73,-104 287.54,-104 287.54,-104 287.54,-104 287.54,-216.86 287.54,-216.86"/>
<polygon fill="black" stroke="black" points="284.04,-216.86 287.54,-226.86 291.04,-216.86 284.04,-216.86"/>
</g>
<!-- UserService  -->
<g id="node9" class="node">
<title>UserService </title>
<polygon fill="#fb8072" stroke="black" points="918.9,-198 831.1,-198 831.1,-162 918.9,-162 918.9,-198"/>
<text text-anchor="middle" x="875" y="-175.8" font-family="Times,serif" font-size="14.00">UserService </text>
</g>
<!-- UsersModule&#45;&gt;UserService  -->
<g id="edge9" class="edge">
<title>UsersModule&#45;&gt;UserService </title>
<path fill="none" stroke="black" stroke-dasharray="5,2" d="M244.85,-122.11C244.85,-131.9 244.85,-142 244.85,-142 244.85,-142 875,-142 875,-142 875,-142 875,-151.89 875,-151.89"/>
<polygon fill="black" stroke="black" points="871.5,-151.89 875,-161.89 878.5,-151.89 871.5,-151.89"/>
</g>
<!-- AppService -->
<g id="node5" class="node">
<title>AppService</title>
<ellipse fill="#fdb462" stroke="black" cx="462" cy="-180" rx="56.74" ry="18"/>
<text text-anchor="middle" x="462" y="-175.8" font-family="Times,serif" font-size="14.00">AppService</text>
</g>
<!-- AppService&#45;&gt;AppModule -->
<g id="edge4" class="edge">
<title>AppService&#45;&gt;AppModule</title>
<path fill="none" stroke="black" d="M408.53,-174C374.82,-174 337.63,-174 337.63,-174 337.63,-174 337.63,-216.72 337.63,-216.72"/>
<polygon fill="black" stroke="black" points="334.13,-216.72 337.63,-226.72 341.13,-216.72 334.13,-216.72"/>
</g>
<!-- AuthService -->
<g id="node7" class="node">
<title>AuthService</title>
<ellipse fill="#fdb462" stroke="black" cx="732" cy="-180" rx="59.11" ry="18"/>
<text text-anchor="middle" x="732" y="-175.8" font-family="Times,serif" font-size="14.00">AuthService</text>
</g>
<!-- AuthService&#45;&gt;AuthModule -->
<g id="edge6" class="edge">
<title>AuthService&#45;&gt;AuthModule</title>
<path fill="none" stroke="black" d="M732,-161.8C732,-137.64 732,-98 732,-98 732,-98 390.78,-98 390.78,-98"/>
<polygon fill="black" stroke="black" points="390.78,-94.5 380.78,-98 390.78,-101.5 390.78,-94.5"/>
</g>
<!-- PostsService -->
<g id="node8" class="node">
<title>PostsService</title>
<ellipse fill="#fdb462" stroke="black" cx="84" cy="-104" rx="60.27" ry="18"/>
<text text-anchor="middle" x="84" y="-99.8" font-family="Times,serif" font-size="14.00">PostsService</text>
</g>
<!-- PostsService&#45;&gt;PostsModule -->
<g id="edge8" class="edge">
<title>PostsService&#45;&gt;PostsModule</title>
<path fill="none" stroke="black" d="M84,-122.01C84,-144.49 84,-180 84,-180 84,-180 175.4,-180 175.4,-180"/>
<polygon fill="black" stroke="black" points="175.4,-183.5 185.4,-180 175.4,-176.5 175.4,-183.5"/>
</g>
</g>
</svg>
